<?xml version="1.0" encoding="UTF-8"?><svg xmlns="http://www.w3.org/2000/svg" xmlns:xlink="http://www.w3.org/1999/xlink" fill-opacity="1" color-rendering="auto" color-interpolation="auto" text-rendering="auto" stroke="black" stroke-linecap="square" width="802" stroke-miterlimit="10" shape-rendering="auto" stroke-opacity="1" fill="black" stroke-dasharray="none" font-weight="normal" stroke-width="1" height="680" font-family="'Dialog'" font-style="normal" stroke-linejoin="miter" font-size="12px" stroke-dashoffset="0" image-rendering="auto">
  <!--Generated by ySVG 2.5-->
  <defs id="genericDefs"/>
  <g>
    <defs id="defs1">
      <clipPath clipPathUnits="userSpaceOnUse" id="clipPath1">
        <path d="M0 0 L802 0 L802 680 L0 680 L0 0 Z"/>
      </clipPath>
      <clipPath clipPathUnits="userSpaceOnUse" id="clipPath2">
        <path d="M1 -155 L803 -155 L803 525 L1 525 L1 -155 Z"/>
      </clipPath>
    </defs>
    <g fill="white" text-rendering="geometricPrecision" shape-rendering="geometricPrecision" transform="translate(-1,155)" stroke="white">
      <rect x="1" width="802" height="680" y="-155" clip-path="url(#clipPath2)" stroke="none"/>
    </g>
    <g fill="rgb(245,245,245)" text-rendering="geometricPrecision" shape-rendering="geometricPrecision" transform="matrix(1,0,0,1,-1,155)" stroke="rgb(245,245,245)">
      <rect x="139" width="542" height="508.14" y="-80.14" clip-path="url(#clipPath2)" stroke="none"/>
      <rect x="139" y="-80.14" clip-path="url(#clipPath2)" fill="rgb(235,235,235)" width="542" height="29.14" stroke="none"/>
    </g>
    <g font-size="20px" stroke-linecap="butt" transform="matrix(1,0,0,1,-1,155)" text-rendering="geometricPrecision" font-family="'Source Sans Pro'" shape-rendering="geometricPrecision" stroke-miterlimit="1.45">
      <text x="375.73" xml:space="preserve" y="-58.46" clip-path="url(#clipPath2)" stroke="none">Account</text>
      <rect x="139" y="-80.14" clip-path="url(#clipPath2)" fill="none" width="542" stroke-dasharray="6,2" height="508.14"/>
    </g>
    <g fill="rgb(224,224,224)" text-rendering="geometricPrecision" shape-rendering="geometricPrecision" transform="matrix(1,0,0,1,-1,155)" stroke="rgb(224,224,224)">
      <rect x="533" width="133" height="30" y="15" clip-path="url(#clipPath2)" stroke="none"/>
    </g>
    <g text-rendering="geometricPrecision" stroke-miterlimit="1.45" shape-rendering="geometricPrecision" transform="matrix(1,0,0,1,-1,155)" stroke-linecap="butt">
      <rect fill="none" x="533" width="133" height="30" y="15" clip-path="url(#clipPath2)"/>
      <text x="549.254" font-size="14px" y="34.977" clip-path="url(#clipPath2)" font-family="'Source Sans Pro'" stroke="none" xml:space="preserve">public crypto key</text>
    </g>
    <g fill="rgb(51,51,51)" text-rendering="geometricPrecision" shape-rendering="geometricPrecision" transform="matrix(1,0,0,1,-1,155)" stroke="rgb(51,51,51)">
      <rect x="533" width="133" height="30" y="45" clip-path="url(#clipPath2)" stroke="none"/>
      <rect stroke-linecap="butt" x="533" y="45" clip-path="url(#clipPath2)" fill="none" width="133" height="30" stroke-miterlimit="1.45"/>
    </g>
    <g stroke-linecap="butt" font-size="14px" transform="matrix(1,0,0,1,-1,155)" fill="white" text-rendering="geometricPrecision" font-family="'Source Sans Pro'" shape-rendering="geometricPrecision" stroke="white" stroke-miterlimit="1.45">
      <text x="546.804" xml:space="preserve" y="64.977" clip-path="url(#clipPath2)" stroke="none">private crypto key</text>
    </g>
    <g fill="rgb(153,255,204)" text-rendering="geometricPrecision" shape-rendering="geometricPrecision" transform="matrix(1,0,0,1,-1,155)" stroke="rgb(153,255,204)">
      <rect x="204" y="136" clip-path="url(#clipPath2)" width="220" rx="4" ry="4" height="76" stroke="none"/>
    </g>
    <g text-rendering="geometricPrecision" stroke-miterlimit="1.45" shape-rendering="geometricPrecision" transform="matrix(1,0,0,1,-1,155)" stroke-linecap="butt">
      <rect x="204" y="136" clip-path="url(#clipPath2)" fill="none" width="220" rx="4" ry="4" height="76"/>
      <text x="275.528" font-size="14px" y="152.58" clip-path="url(#clipPath2)" font-family="'Source Sans Pro'" stroke="none" xml:space="preserve">type: contact</text>
      <text x="229.797" font-size="14px" y="170.178" clip-path="url(#clipPath2)" font-family="'Source Sans Pro'" stroke="none" xml:space="preserve">contact: @ab29ci0=.ed25519</text>
      <text x="271.461" font-size="14px" y="187.776" clip-path="url(#clipPath2)" font-family="'Source Sans Pro'" stroke="none" xml:space="preserve">following: true</text>
      <text x="259.106" font-size="14px" y="205.374" clip-path="url(#clipPath2)" font-family="'Source Sans Pro'" stroke="none" xml:space="preserve">signature: 59c1029</text>
    </g>
    <g fill="rgb(153,255,204)" text-rendering="geometricPrecision" shape-rendering="geometricPrecision" transform="matrix(1,0,0,1,-1,155)" stroke="rgb(153,255,204)">
      <rect x="204" y="15" clip-path="url(#clipPath2)" width="220" rx="4" ry="4" height="76" stroke="none"/>
    </g>
    <g text-rendering="geometricPrecision" stroke-miterlimit="1.45" shape-rendering="geometricPrecision" transform="matrix(1,0,0,1,-1,155)" stroke-linecap="butt">
      <rect x="204" y="15" clip-path="url(#clipPath2)" fill="none" width="220" rx="4" ry="4" height="76"/>
      <text x="284.873" font-size="14px" y="40.379" clip-path="url(#clipPath2)" font-family="'Source Sans Pro'" stroke="none" xml:space="preserve">type: post</text>
      <text x="241.109" font-size="14px" y="57.977" clip-path="url(#clipPath2)" font-family="'Source Sans Pro'" stroke="none" xml:space="preserve">content: "My first post :)"</text>
      <text x="261.584" font-size="14px" y="75.575" clip-path="url(#clipPath2)" font-family="'Source Sans Pro'" stroke="none" xml:space="preserve">signature: 29aff91</text>
    </g>
    <g fill="rgb(153,255,204)" text-rendering="geometricPrecision" shape-rendering="geometricPrecision" transform="matrix(1,0,0,1,-1,155)" stroke="rgb(153,255,204)">
      <rect x="204" y="257" clip-path="url(#clipPath2)" width="220" rx="4" ry="4" height="76" stroke="none"/>
    </g>
    <g text-rendering="geometricPrecision" stroke-miterlimit="1.45" shape-rendering="geometricPrecision" transform="matrix(1,0,0,1,-1,155)" stroke-linecap="butt">
      <rect x="204" y="257" clip-path="url(#clipPath2)" fill="none" width="220" rx="4" ry="4" height="76"/>
      <text x="284.873" font-size="14px" y="282.379" clip-path="url(#clipPath2)" font-family="'Source Sans Pro'" stroke="none" xml:space="preserve">type: post</text>
      <text x="236.93" font-size="14px" y="299.977" clip-path="url(#clipPath2)" font-family="'Source Sans Pro'" stroke="none" xml:space="preserve">content: "It's a sunny day"</text>
      <text x="256.551" font-size="14px" y="317.575" clip-path="url(#clipPath2)" font-family="'Source Sans Pro'" stroke="none" xml:space="preserve">signature: 10afc18d</text>
      <text x="168.968" font-size="16px" y="58.688" clip-path="url(#clipPath2)" font-family="'Source Sans Pro'" stroke="none" xml:space="preserve">1st</text>
      <text x="166.208" font-size="16px" y="179.688" clip-path="url(#clipPath2)" font-family="'Source Sans Pro'" stroke="none" xml:space="preserve">2nd</text>
      <text x="167.808" font-size="16px" y="300.688" clip-path="url(#clipPath2)" font-family="'Source Sans Pro'" stroke="none" xml:space="preserve">3rd</text>
      <text x="290.36" font-size="20px" y="-3.39" clip-path="url(#clipPath2)" font-family="'Source Sans Pro'" stroke="none" font-weight="bold" xml:space="preserve">Diary</text>
      <text x="564.23" font-size="20px" y="-3.39" clip-path="url(#clipPath2)" font-family="'Source Sans Pro'" stroke="none" font-weight="bold" xml:space="preserve">Identity</text>
      <path fill="none" stroke-dasharray="6,2" d="M567.75 75 L567.75 151.25 L545 174 L432 174" clip-path="url(#clipPath2)" stroke="gray"/>
      <path fill="gray" stroke-dasharray="6,2" d="M424 174 L436 179 L433 174 L436 169 Z" clip-path="url(#clipPath2)" stroke="none"/>
      <text x="504.4178" font-size="14px" y="157.7638" clip-path="url(#clipPath2)" font-family="'Source Sans Pro'" stroke="none" xml:space="preserve">signed</text>
      <path fill="none" d="M314 135.9561 L314 99" clip-path="url(#clipPath2)"/>
      <path d="M314 91 L309 103 L314 100 L319 103 Z" clip-path="url(#clipPath2)" stroke="none"/>
      <text x="318" font-size="14px" y="118.477" clip-path="url(#clipPath2)" font-family="'Source Sans Pro'" stroke="none" xml:space="preserve">references</text>
      <path fill="none" stroke-dasharray="6,2" d="M532.9734 63.5 L432 63.5" clip-path="url(#clipPath2)" stroke="gray"/>
      <path fill="gray" stroke-dasharray="6,2" d="M424 63.5 L436 68.5 L433 63.5 L436 58.5 Z" clip-path="url(#clipPath2)" stroke="none"/>
      <path fill="none" stroke-dasharray="6,2" d="M631.25 75 L631.25 272.75 L609 295 L432 295" clip-path="url(#clipPath2)" stroke="gray"/>
      <path fill="gray" stroke-dasharray="6,2" d="M424 295 L436 300 L433 295 L436 290 Z" clip-path="url(#clipPath2)" stroke="none"/>
      <path fill="none" d="M314 256.9561 L314 220" clip-path="url(#clipPath2)"/>
      <path d="M314 212 L309 224 L314 221 L319 224 Z" clip-path="url(#clipPath2)" stroke="none"/>
      <text x="318" font-size="14px" y="239.477" clip-path="url(#clipPath2)" font-family="'Source Sans Pro'" stroke="none" xml:space="preserve">references</text>
    </g>
  </g>
</svg>
